<?xml version="1.0" encoding="UTF-8"?>
<svg xmlns="http://www.w3.org/2000/svg" viewBox="0 0 108 108" width="1080" height="1080">
  <title>TikTokRoaming application icon</title>
  <rect width="108" height="108" fill="#070D24"/>
  <g transform="translate(18 18) scale(.6666667)">
    <path fill="#25C9ED" fill-rule="evenodd" d="M54 84c-4-4-23-20-23-37 0-12.7 10.3-23 23-23s23 10.3 23 23c0 17-19 33-23 37Zm0-46.5a9 9 0 1 0 0 18 9 9 0 1 0 0-18Z"/>
    <path fill="#FF4D68" d="m49.2732 79.4694 25.7188-22.4774C70 69.92 57.2 80.8 54 84c-.92-.92-2.6335-2.4748-4.7268-4.5306Z"/>
  </g>
</svg>
